<svg xmlns="http://www.w3.org/2000/svg" width="128" height="128" viewBox="0 0 128 128" id="castle">
  <path fill="#914919" d="M74,122H52V105A11,11,0,0,1,62.26,94c1-.33,5.87.19,8.89,3.59h0A10.86,10.86,0,0,1,74,104.27C74,105,74,103.53,74,122Z"></path>
  <path fill="#843f10" d="M74,122H68v-2.19L67.29,122h-2L68,113.6v-5.74c0-.13,0-.26,0-.39L63.29,122h-6l6.85-21.25a8.49,8.49,0,0,0-12.07,3A11,11,0,0,1,62.26,94c1-.33,5.87.19,8.89,3.59h0a10.9,10.9,0,0,1,2.51,4.63v0C74.15,104.47,74,103,74,122Z"></path>
  <path fill="#444" d="M106,80v6H98V80H88v6H80V76H46V86H38V80H28v6H20V80H10v42H52V105a11,11,0,0,1,22,0v17h42V80Z"></path>
  <path fill="#5c5c5c" d="M106,80v6H98V80H88v6H80V76H46V86H38V80H28v6H20V80H10V93H21a14,14,0,0,1,14,14l.05,15H52V105a11,11,0,0,1,22,0v17h42V80Z"></path>
  <path fill="#757575" d="M13,80V61H33V80H28v6H20V80Z"></path>
  <path fill="#5c5c5c" d="M18,80H13V67h3a2,2,0,0,1,2,2Z"></path>
  <polygon fill="#8d8d8d" points="33 61 13 61 9 61 23 40 32.77 54.65 37 61 33 61"></polygon>
  <path fill="#757575" d="M33,77V61h4l-4.23-6.35L33,54.5V33H55V76H46V86H38V80H33Z"></path>
  <path fill="#5c5c5c" d="M33,39V54.5l-.23.15L37,61H33V80h5v6h1V42a3,3,0,0,0-3-3Z"></path>
  <path fill="#757575" d="M87,26h14V48H87Z"></path>
  <path fill="#5c5c5c" d="M92,32V48H87V30h3A2,2,0,0,1,92,32Z"></path>
  <polygon fill="#5c5c5c" points="75 21 75 48 65 48 65 21 65 20.07 75 20.02 75 21"></polygon>
  <path fill="#757575" d="M65,20v4h3a2,2,0,0,1,2,2V48h5V20Z"></path>
  <polygon fill="#3d3d3d" points="65 45.22 65 48 70 48 70 37.26 65 45.22"></polygon>
  <path fill="#4c4c4c" d="M70,37.26V48h5V38.7a2.71,2.71,0,0,0-5-1.44Z"></path>
  <path fill="#8d8d8d" d="M94,8l11,18H83Z"></path>
  <path fill="#a5a5a5" d="M94,8l1.91,10.46A3,3,0,0,1,93,22H85.5L83,26h22Z"></path>
  <path fill="#5c5c5c" d="M80,76H55V48h52l10,14h-7V80h-4v6H98V80H88v6H80Z"></path>
  <polygon fill="#757575" points="110 68 110 80 106 80 106 86 99 86 99 68 110 68"></polygon>
  <path fill="#444" d="M110,62H55V76h6V71a3,3,0,0,1,3-3h46Z"></path>
  <path fill="#757575" d="M117,62l-9.63-14H55v8H67.65A10,10,0,0,1,76,60.45L77,62Z"></path>
  <path fill="#a5a5a5" d="M107,48H55v4H87a10,10,0,0,1,8.19,4.27l4,5.73H117Z"></path>
  <path fill="#8d8d8d" d="M70,3.85,78.78,20l-17.73.09Z"></path>
  <path fill="#a5a5a5" d="M78.78 20L70 3.85l1.45 9.86a2 2 0 0 1-2 2.29H63.2L61 20zM23 40l2.7 13.41A3 3 0 0 1 22.76 57H11.7L9 61H37z"></path>
  <path fill="#757575" d="M106,80v6H98V80H88v6H80V76H46V86H38V80H28v6H20V80H10V91H48a4,4,0,0,0,4-4V85a2,2,0,0,1,2-2H72a2,2,0,0,1,2,2v2a4,4,0,0,0,4,4H92a15,15,0,0,1,15,15v16h9V80Z"></path>
  <polygon fill="#8d8d8d" points="44 12 58 33 55 33 33 33 30 33 44 12"></polygon>
  <path fill="#a5a5a5" d="M44,12l2.7,13.41A3,3,0,0,1,43.76,29H32.7L30,33H58Z"></path>
  <path fill="#31352e" d="M74,125a3,3,0,0,1-3-3V105a8,8,0,0,0-16,0v17a3,3,0,0,1-6,0V105a14,14,0,0,1,28,0v17A3,3,0,0,1,74,125Z"></path>
  <path fill="#31352e" d="M119.44,60.26l-10-14C108.34,44.71,106.93,45,104,45V29c1,0,2.66.18,3.62-1.53,1.15-2.05.71-1.78-11.06-21a3,3,0,0,0-5.12,0c-11.72,19.19-12.22,19-11.06,21C81.35,29.18,83,29,84,29V40a3,3,0,0,0,6,0V29h8V45H78V23h.79a3,3,0,0,0,2.62-4.43C72.06,1.35,72.38.86,70,.85A3,3,0,0,0,67.37,2.4c-9.49,17.22-10.09,17.23-8.9,19.22,1,1.65,2.53,1.47,3.53,1.46V40a3,3,0,0,0,6,0V23.06l4,0V45H58V36a3,3,0,0,0,2.65-1.58c1.16-2.17.85-1.58-14.15-24.08a3,3,0,0,0-5,0l-14,21A3,3,0,0,0,30,36v5c0,4,6,4,6,0V36H52V73H46a3,3,0,0,0-3,3v7H41V80a3,3,0,0,0-3-3H36V64c1,0,2.7.18,3.65-1.58,1.16-2.17.85-1.58-14.15-24.08a3,3,0,0,0-5,0C5.51,60.83,5.19,60.25,6.35,62.42,7.3,64.18,9,64,10,64v8a3,3,0,0,0,6,0V64H30V77H28a3,3,0,0,0-3,3v3H23V80a3,3,0,0,0-3-3H10a3,3,0,0,0-3,3v42a3,3,0,0,0,3,3H116a3,3,0,0,0,3-3V80a3,3,0,0,0-3-3h-3V65h4A3,3,0,0,0,119.44,60.26ZM94,13.75,99.65,23H88.35ZM70,10.1,73.75,17l-7.6,0ZM44,17.41,52.39,30H35.61Zm-21,28L31.39,58H14.61ZM113,119H13V83h4v3a3,3,0,0,0,3,3h8a3,3,0,0,0,3-3V83h4v3a3,3,0,0,0,3,3h8a3,3,0,0,0,3-3V79H77v7a3,3,0,0,0,3,3h8a3,3,0,0,0,3-3V83h4v3a3,3,0,0,0,3,3h8a3,3,0,0,0,3-3V83h4Zm-6-42h-1a3,3,0,0,0-3,3v3h-2V80a3,3,0,0,0-3-3H88a3,3,0,0,0-3,3v3H83V76a3,3,0,0,0-3-3H58V51h47.46l5.71,8H63a3,3,0,0,0,0,6h44Z"></path>
  <path fill="#ffe41c" d="M48,51H42V45a3,3,0,0,1,3-3h0a3,3,0,0,1,3,3Z"></path>
  <path fill="#ffce1d" d="M45,42a3,3,0,0,0-.5.05A3,3,0,0,1,47,45v6h1V45A3,3,0,0,0,45,42Z"></path>
  <path fill="#ffe41c" d="M97 36H93V33a2 2 0 0 1 2-2h0a2 2 0 0 1 2 2zM97 43H93V41a2 2 0 0 1 2-2h0a2 2 0 0 1 2 2z"></path>
  <path fill="#ffce1d" d="M95 31a2 2 0 0 0-.5.07A2 2 0 0 1 96 33v3h1V33A2 2 0 0 0 95 31zM95 39a2 2 0 0 0-.5.07A2 2 0 0 1 96 41v2h1V41A2 2 0 0 0 95 39z"></path>
  <path fill="#ffe41c" d="M27 75H21V71a3 3 0 0 1 3-3h0a3 3 0 0 1 3 3zM27 101H21V97a3 3 0 0 1 3-3h0a3 3 0 0 1 3 3zM45 101H39V97a3 3 0 0 1 3-3h0a3 3 0 0 1 3 3zM87 101H81V97a3 3 0 0 1 3-3h0a3 3 0 0 1 3 3zM105 101H99V97a3 3 0 0 1 3-3h0a3 3 0 0 1 3 3zM102 75H96V69a3 3 0 0 1 3-3h0a3 3 0 0 1 3 3zM92 75H86V69a3 3 0 0 1 3-3h0a3 3 0 0 1 3 3zM82 71H76V69a3 3 0 0 1 3-3h0a3 3 0 0 1 3 3zM72 71H66V69a3 3 0 0 1 3-3h0a3 3 0 0 1 3 3zM48 68H42V62a3 3 0 0 1 3-3h0a3 3 0 0 1 3 3z"></path>
  <path fill="#ffce1d" d="M45 59a3 3 0 0 0-.5.05A3 3 0 0 1 47 62v6h1V62A3 3 0 0 0 45 59zM24 68a3 3 0 0 0-.5.05A3 3 0 0 1 26 71v4h1V71A3 3 0 0 0 24 68zM89 66a3 3 0 0 0-.5.05A3 3 0 0 1 91 69v6h1V69A3 3 0 0 0 89 66zM99 66a3 3 0 0 0-.5.05A3 3 0 0 1 101 69v6h1V69A3 3 0 0 0 99 66zM84 94a3 3 0 0 0-.5.05A3 3 0 0 1 86 97v4h1V97A3 3 0 0 0 84 94zM79 66a3 3 0 0 0-.5.05A3 3 0 0 1 81 69v2h1V69A3 3 0 0 0 79 66zM69 66a3 3 0 0 0-.5.05A3 3 0 0 1 71 69v2h1V69A3 3 0 0 0 69 66zM42 94a3 3 0 0 0-.5.05A3 3 0 0 1 44 97v4h1V97A3 3 0 0 0 42 94zM24 94a3 3 0 0 0-.5.05A3 3 0 0 1 26 97v4h1V97A3 3 0 0 0 24 94zM102 94a3 3 0 0 0-.5.05A3 3 0 0 1 104 97v4h1V97A3 3 0 0 0 102 94z"></path>
  <path fill="#5c5c5c" d="M74,104v1c0-.34,0-.67,0-1Z"></path>
</svg>
