<svg id="pyramid" viewBox="10.2 28.4 78.4 45.2" xmlns="http://www.w3.org/2000/svg" style="max-height: 500px" width="78.4" height="45.2">
  <path d="M86.248 67.941H84.38C54.532 27.127 57.53 31.164 57.23 30.82a1.157 1.157 0 0 0-.258-.198c-.101-.029-.125-.059-.301-.059-.009 0-.015-.005-.023-.005-.017.001-.031.012-.048.014a.801.801 0 0 0-.32.107.736.736 0 0 0-.246.235l-10.399 16.91c-7.869-10.939-7.207-10.103-7.442-10.216a.739.739 0 0 0-.325-.065l-.012-.003c-.243.037-.407.084-.563.273-.013.016-.034.023-.046.039L15.615 67.941h-1.863a.75.75 0 0 0 0 1.5h72.495a.75.75 0 0 0 .001-1.5zM54.664 36.016 49.99 53.859l-3.395-4.721 8.069-13.122zM17.495 67.908l18.512-25.749-7.199 25.749H17.495zm12.861.033 2.194-7.846h4.6a.75.75 0 0 0 0-1.5h-4.181l2.194-7.846h3.155a.75.75 0 0 0 0-1.5h-2.736l2.585-9.244 6.909 9.61.002.005 3.094 4.303h-5.18a.75.75 0 0 0 0 1.5h6.259l5.641 7.846H51.17a.75.75 0 0 0 0 1.5h4.8l2.281 3.173H30.356zm29.742 0-5.641-7.846h6.056a.75.75 0 0 0 0-1.5h-7.135l-2.258-3.14 1.233-4.706h8.159a.75.75 0 0 0 0-1.5h-7.767l2.055-7.846h2.206a.75.75 0 0 0 0-1.5h-1.813L57 33.019l8.447 11.558h-3.764a.75.75 0 0 0 0 1.5h4.861l5.734 7.846h-3.585a.75.75 0 0 0 0 1.5h4.681l5.734 7.846H66.355a.75.75 0 0 0 0 1.5h13.848l2.319 3.173H60.098z"/>
  <path d="M45.327 63.269h-7.009a.75.75 0 0 0 0 1.5h7.009a.75.75 0 0 0 0-1.5z"/>
</svg>